<?xml version="1.0" encoding="UTF-8" standalone="no"?>
<svg
   xmlns:dc="http://purl.org/dc/elements/1.1/"
   xmlns:cc="http://creativecommons.org/ns#"
   xmlns:rdf="http://www.w3.org/1999/02/22-rdf-syntax-ns#"
   xmlns:svg="http://www.w3.org/2000/svg"
   xmlns="http://www.w3.org/2000/svg"
   height="63.308842"
   width="472.63419"
   xml:space="preserve"
   viewBox="0 0 472.63419 63.308842"
   y="0px"
   x="0px"
   id="Camada_1"
   version="1.1"><metadata
   id="metadata997"><rdf:RDF><cc:Work
       rdf:about=""><dc:format>image/svg+xml</dc:format><dc:type
         rdf:resource="http://purl.org/dc/dcmitype/StillImage" /><dc:title></dc:title></cc:Work></rdf:RDF></metadata><defs
   id="defs995" />
<g
   transform="translate(-101.62582,-265.25264)"
   id="g990">
	<path
   id="path950"
   d="m 168.07,292.57 c 10.13,0 20.16,0 30.43,0 0,-0.64 0,-1.24 0,-1.84 0,-7.2 0,-14.41 0,-21.61 0,-2.48 0.52,-2.99 3.02,-3.01 0.93,-0.01 1.87,-0.03 2.8,0.01 1.77,0.08 2.4,0.73 2.48,2.48 0.02,0.36 0.01,0.73 0.01,1.09 0,11.56 0,23.11 0,34.67 0,0.62 0,1.23 0,2.07 -2.75,0.26 -5.41,0.51 -8.24,0.77 0,-2.3 0,-4.5 0,-6.84 -10.23,0 -20.3,0 -30.6,0 0,2.57 -0.09,5.15 0.03,7.71 0.07,1.52 -0.32,2.1 -1.93,2.11 -2.06,0.01 -4.12,0.33 -6.37,0.54 0,-0.59 0,-1.09 0,-1.6 0,-13.32 0,-26.63 0,-39.95 0,-2.57 0.49,-3.05 3.12,-3.06 0.73,0 1.45,-0.01 2.18,0 2.37,0.03 2.96,0.61 2.97,2.95 0.01,4.82 0,9.64 0,14.46 0,2.54 0,5.08 0,7.62 0,0.45 0.06,0.91 0.1,1.43 z" />
	<path
   id="path952"
   d="m 471.68,288.74 c 2.87,-0.26 5.48,-0.5 8.29,-0.75 0,0.74 0,1.3 0,1.85 0.03,5.6 -0.07,11.2 0.13,16.79 0.14,3.95 1.21,7.68 4.23,10.54 3.88,3.67 8.66,4.36 13.62,3.68 8.14,-1.13 12.38,-6.38 12.55,-15.3 0.12,-6.17 0.04,-12.34 0.05,-18.5 0,-0.56 0,-1.13 0,-1.84 2.76,-0.24 5.42,-0.48 8.11,-0.71 0.07,0.44 0.15,0.69 0.15,0.94 -0.06,7.36 -0.05,14.72 -0.21,22.08 -0.08,3.38 -0.92,6.66 -2.39,9.74 -2.37,4.95 -6.24,8.21 -11.45,9.8 -5.94,1.81 -11.96,1.88 -17.95,0.28 -8.43,-2.26 -13.03,-8.07 -14.45,-16.46 -0.5,-2.94 -0.57,-5.98 -0.64,-8.97 -0.11,-4.35 -0.04,-8.7 -0.04,-13.17 z" />
	<path
   id="path954"
   d="m 139.63,312.52 c 0.61,-5.13 -2.45,-7.68 -6.53,-9.24 -4.49,-1.71 -9.14,-2.99 -13.64,-4.69 -3.47,-1.31 -7.02,-2.62 -10.16,-4.54 -8.36,-5.13 -8.55,-19.19 1.01,-25.2 8.07,-5.07 21.76,-4.72 29.33,0.96 3.48,2.61 5.87,5.96 6.54,10.37 0.28,1.83 -0.38,2.63 -2.21,2.73 -0.26,0.01 -0.52,0.01 -0.78,0.01 -4.28,0.02 -4.28,0.02 -5.92,-3.82 -1.14,-2.65 -3.26,-4.3 -5.84,-5.26 -5.28,-1.96 -10.58,-1.99 -15.66,0.6 -5.46,2.78 -5.96,10.63 -0.74,13.83 2.87,1.76 6.15,2.91 9.35,4.08 4.13,1.51 8.39,2.65 12.51,4.17 3.88,1.43 7.66,3.3 9.48,7.28 0.98,2.15 1.24,4.65 1.71,7.01 0.06,0.29 -0.55,0.99 -0.91,1.03 -2.45,0.29 -4.92,0.46 -7.54,0.68 z" />
	<path
   id="path956"
   d="m 280.73,299.65 c 0,-0.59 0,-1.09 0,-1.6 0,-9.59 0,-19.18 0,-28.77 0,-2.68 0.49,-3.18 3.18,-3.17 7.46,0.02 14.93,-0.03 22.39,0.13 5.2,0.11 10.02,1.49 13.98,5.12 4.02,3.69 5.2,8.46 5.1,13.66 -0.07,3.58 -0.87,6.99 -3.05,9.93 -0.38,0.52 -1.08,1.08 -1.67,1.13 -13,1.23 -26,2.39 -39,3.56 -0.26,0.03 -0.51,0.01 -0.93,0.01 z m 8.41,-26.6 c 0,7.75 0,15.06 0,22.35 5.81,0 11.51,0.25 17.18,-0.07 6.2,-0.35 10.37,-3.47 10.61,-10.37 0.2,-5.68 -2.25,-10.38 -8.44,-11.1 -6.34,-0.72 -12.79,-0.57 -19.35,-0.81 z" />
	<path
   id="path958"
   d="m 373.54,291.32 c 1.52,-3.09 1.75,-6.12 1.25,-9.16 -0.82,-4.99 -4.17,-8.24 -9.77,-8.61 -6.08,-0.4 -12.21,-0.09 -18.5,-0.09 -0.03,0.55 -0.08,1.15 -0.08,1.74 -0.01,5.7 -0.03,11.4 0.02,17.11 0.01,1.19 -0.32,1.63 -1.54,1.68 -2.17,0.08 -4.33,0.35 -6.69,0.56 -0.03,-0.53 -0.08,-1.03 -0.08,-1.52 0,-7.98 -0.01,-15.97 0,-23.95 0,-2.44 0.49,-2.96 2.89,-2.95 7.83,0.02 15.66,-0.02 23.48,0.13 4.3,0.09 8.41,1.14 12,3.69 5.28,3.76 7.03,9.13 6.9,15.32 -0.11,5.17 -0.13,5.17 -5.23,5.64 -1.48,0.13 -2.95,0.26 -4.65,0.41 z" />
	<path
   id="path960"
   d="m 411.42,294.19 c 2.9,-0.26 5.56,-0.49 8.44,-0.74 0,0.75 -0.02,1.36 0,1.96 0.14,4.14 0.02,8.31 0.5,12.41 1.05,8.9 6.87,13.74 15.85,13.26 2.7,-0.14 5.49,-0.61 8.01,-1.54 4.13,-1.52 6.1,-5.08 7.22,-9.14 0.9,-3.27 0.97,-3.33 4.33,-3.33 0.26,0 0.52,0 0.78,0 3.66,0 4.18,0.63 3.46,4.25 -1.55,7.76 -6.24,12.9 -13.58,15.42 -6.94,2.38 -14.09,2.47 -21.05,0.02 -6.91,-2.44 -10.86,-7.72 -12.74,-14.6 -1.6,-5.83 -1.13,-11.82 -1.22,-17.97 z" />
	<path
   id="path962"
   d="m 224.02,304.9 c 1.98,-5.18 3.88,-10.15 5.78,-15.12 2.66,-6.95 5.32,-13.91 7.99,-20.86 0.92,-2.41 1.46,-2.78 4.02,-2.8 1.4,-0.01 2.8,0.03 4.2,-0.01 1.84,-0.04 2.94,0.79 3.6,2.54 3.26,8.66 6.6,17.29 9.91,25.93 0.85,2.21 1.69,4.43 2.61,6.85 -2.5,0.22 -4.86,0.5 -7.22,0.58 -0.39,0.01 -1,-0.74 -1.2,-1.26 -3.13,-8.1 -6.22,-16.22 -9.32,-24.34 -0.17,-0.43 -0.34,-0.86 -0.63,-1.61 -0.31,0.72 -0.54,1.19 -0.72,1.68 -3.34,8.74 -6.69,17.48 -9.98,26.24 -0.4,1.06 -0.92,1.51 -2.1,1.55 -2.25,0.1 -4.5,0.4 -6.94,0.63 z" />
	<path
   id="path964"
   d="m 460.13,283.5 c -2.85,0.26 -5.52,0.5 -8.33,0.76 -0.19,-0.53 -0.4,-1.04 -0.54,-1.57 -1.56,-5.63 -5.22,-9.02 -10.99,-9.75 -2.89,-0.36 -5.95,-0.49 -8.79,0.05 -6.47,1.22 -10.08,5.54 -11.13,12.49 -0.08,0.51 -0.16,1.01 -0.25,1.64 -2.78,0.25 -5.5,0.5 -8.64,0.79 0.45,-2.35 0.67,-4.55 1.29,-6.64 3.05,-10.36 10.1,-15.14 20.21,-15.89 5.36,-0.4 10.66,0.07 15.62,2.45 6.2,2.98 10.06,7.79 11.44,14.56 0.05,0.29 0.06,0.6 0.11,1.11 z" />
	<path
   id="path966"
   d="m 267.16,327.55 c -3.47,0 -3.47,0 -4.72,-3.2 -1.27,-3.28 -2.57,-6.55 -3.79,-9.84 -0.3,-0.8 -0.7,-1.12 -1.57,-1.12 -8.91,0.03 -17.82,0.03 -26.73,0 -0.96,0 -1.34,0.39 -1.65,1.22 -1.3,3.54 -2.67,7.06 -4.02,10.59 -0.77,2.01 -1.3,2.35 -3.47,2.36 -0.73,0 -1.45,0 -2.18,0 -2.64,-0.01 -3.32,-1.01 -2.37,-3.53 1.25,-3.29 2.66,-6.52 3.72,-9.87 0.69,-2.2 1.87,-2.92 4.14,-3.11 12.44,-1 24.86,-2.19 37.29,-3.32 2.63,-0.24 2.63,-0.27 3.55,2.11 1.78,4.64 3.56,9.27 5.32,13.91 1.11,2.91 0.49,3.81 -2.6,3.81 -0.3,-0.01 -0.61,-0.01 -0.92,-0.01 z" />
	<path
   id="path968"
   d="m 547.11,281.9 c 2.8,-0.26 5.41,-0.49 8.25,-0.75 0,0.67 0,1.22 0,1.77 0,13.82 0,27.64 0,41.46 0,2.7 -0.47,3.16 -3.14,3.16 -0.98,0 -1.97,-0.03 -2.95,0.01 -1.36,0.06 -1.98,-0.69 -2.19,-1.91 -0.06,-0.35 -0.05,-0.72 -0.05,-1.08 0,-13.72 0,-27.44 0,-41.15 0,-0.46 0.05,-0.92 0.08,-1.51 z" />
	<path
   id="path970"
   d="m 547.1,275.61 c -0.06,-0.7 -0.1,-1.21 -0.16,-1.92 -0.56,0 -1.11,0 -1.66,0 -4.81,0 -9.63,0.01 -14.44,0 -2.1,0 -2.67,-0.57 -2.75,-2.65 -0.17,-4.69 0.05,-4.92 4.72,-4.92 12.68,0 25.37,0 38.05,0 2.98,0 3.39,0.43 3.4,3.42 0,3.71 0.01,3.78 -3.75,3.9 -4.55,0.15 -9.1,0.16 -13.66,0.25 -0.67,0.01 -1.52,-0.27 -1.58,0.9 -0.01,0.13 -0.38,0.33 -0.59,0.35 -2.47,0.23 -4.94,0.44 -7.58,0.67 z" />
	<path
   id="path972"
   d="m 338.22,300.82 c 13.72,-1.24 27.27,-2.47 41.13,-3.73 -2.48,2.81 -5.37,4.5 -8.68,5.21 -3.06,0.65 -6.23,0.97 -9.37,1.1 -4.34,0.18 -8.7,0.05 -13.05,0.05 -0.55,0 -1.1,0 -1.82,0 0,0.83 0,1.44 0,2.05 0,6.32 0.01,12.64 0,18.95 0,2.66 -0.44,3.1 -3.03,3.1 -1.09,0 -2.18,-0.02 -3.26,0 -1.21,0.02 -1.79,-0.64 -1.94,-1.77 -0.05,-0.41 -0.05,-0.83 -0.05,-1.24 0,-7.41 0,-14.81 0,-22.22 -0.01,-0.45 0.04,-0.9 0.07,-1.5 z" />
	<path
   id="path974"
   d="m 105.85,321.83 c 6.3,-0.31 12.05,-1.48 17.94,-0.81 3.63,0.41 7.15,-0.32 10.68,-1.46 2.41,-0.78 5.1,-0.71 7.67,-0.98 1.38,-0.15 2.78,-0.23 4.35,-0.36 -1.15,2.66 -2.99,4.48 -5.2,5.96 -5.18,3.45 -11.01,4.33 -17.06,4.21 -5.73,-0.12 -11.22,-1.18 -16.04,-4.56 -0.42,-0.3 -0.83,-0.62 -1.23,-0.95 -0.27,-0.23 -0.51,-0.48 -1.11,-1.05 z" />
	<path
   id="path976"
   d="m 305.29,303.83 c 2.74,-0.26 5.3,-0.53 7.87,-0.71 0.32,-0.02 0.8,0.41 1,0.75 3.98,6.84 7.94,13.69 11.87,20.55 1.01,1.77 0.23,3.05 -1.8,3.12 -5.28,0.18 -5.28,0.18 -7.93,-4.42 -3.4,-5.92 -6.8,-11.84 -10.19,-17.76 -0.24,-0.43 -0.47,-0.88 -0.82,-1.53 z" />
	<path
   id="path978"
   d="m 280.73,306.04 c 2.79,-0.25 5.4,-0.48 8.21,-0.73 0.04,0.63 0.09,1.12 0.09,1.61 0.01,5.85 0.01,11.7 0,17.55 0,2.51 -0.59,3.08 -3.11,3.08 -0.88,0 -1.76,0 -2.64,0 -1.93,-0.01 -2.52,-0.6 -2.53,-2.65 -0.02,-4.3 -0.01,-8.59 -0.01,-12.89 -0.01,-1.92 -0.01,-3.83 -0.01,-5.97 z" />
	<path
   id="path980"
   d="m 471.7,282.44 c 0,-4.92 -0.03,-9.62 0.02,-14.31 0.01,-1.19 0.74,-1.93 1.96,-1.97 1.39,-0.05 2.79,-0.05 4.18,0.01 1.37,0.06 2.08,0.89 2.09,2.22 0.03,4.14 0.04,8.27 -0.02,12.41 0,0.34 -0.5,0.93 -0.82,0.97 -2.4,0.27 -4.81,0.45 -7.41,0.67 z" />
	<path
   id="path982"
   d="m 198.54,313.49 c 2.75,-0.25 5.39,-0.48 8.27,-0.74 0,1.49 0,2.81 0,4.14 0,2.69 0.03,5.38 -0.01,8.06 -0.03,1.99 -0.67,2.58 -2.63,2.59 -1.19,0.01 -2.38,-0.01 -3.57,0 -1.26,0.02 -2.02,-0.65 -2.04,-1.84 -0.06,-4.01 -0.02,-8.03 -0.02,-12.21 z" />
	<path
   id="path984"
   d="m 510.55,278.91 c 0,-0.76 0,-1.46 0,-2.16 0,-2.74 -0.02,-5.49 0.01,-8.23 0.02,-1.6 0.66,-2.29 2.22,-2.37 1.29,-0.06 2.59,-0.04 3.88,0 1.27,0.05 2.08,0.75 2.11,2.02 0.07,3.05 0.07,6.11 -0.01,9.16 -0.01,0.34 -0.74,0.9 -1.19,0.95 -2.25,0.28 -4.52,0.42 -7.02,0.63 z" />
	<path
   id="path986"
   d="m 159.71,317.01 c 2.78,-0.25 5.4,-0.49 8.14,-0.74 0,3.33 0.07,6.51 -0.04,9.69 -0.03,1.03 -0.86,1.59 -1.96,1.58 -1.29,-0.01 -2.59,0.01 -3.88,0 -1.52,-0.02 -2.2,-0.6 -2.24,-2.14 -0.07,-2.73 -0.02,-5.47 -0.02,-8.39 z" />
	<path
   id="path988"
   d="m 110.86,315.15 c -2.79,0.25 -5.41,0.49 -8.03,0.72 -0.19,0.02 -0.56,-0.02 -0.57,-0.08 -0.27,-1.39 -0.68,-2.8 -0.63,-4.19 0.02,-0.43 1.27,-1.01 2.02,-1.16 0.99,-0.2 2.07,0.03 3.09,-0.07 1.76,-0.16 2.69,0.71 3.17,2.29 0.25,0.78 0.58,1.53 0.95,2.49 z" />
</g>
</svg>
